<svg xmlns="http://www.w3.org/2000/svg" version="1.1" xmlns:xlink="http://www.w3.org/1999/xlink" xmlns:svgjs="http://svgjs.com/svgjs" width="500" height="478"><svg width="500" height="478" viewBox="0 0 500 478" fill="none" xmlns="http://www.w3.org/2000/svg">
<path d="M500 258.666C500 379.796 388.07 477.996 250 477.996C111.93 477.996 0 379.806 0 258.666C0 227.706 7.31 198.246 20.5 171.546V10.0857C20.5 2.34572 28.9 -2.50428 35.61 1.37572L140.07 61.6357C173.24 47.3557 210.55 39.3457 250 39.3457C289.45 39.3457 325.82 47.1557 358.68 61.0957L462.22 1.36572C468.93 -2.51428 477.33 2.33572 477.33 10.0857V167.286C491.89 195.106 500 226.056 500 258.676V258.666Z" fill="#624851"></path>
<path d="M123 308.496C142.33 308.496 158 278.275 158 240.996C158 203.717 142.33 173.496 123 173.496C103.67 173.496 88 203.717 88 240.996C88 278.275 103.67 308.496 123 308.496Z" fill="white"></path>
<path d="M371 308.496C390.33 308.496 406 278.275 406 240.996C406 203.717 390.33 173.496 371 173.496C351.67 173.496 336 203.717 336 240.996C336 278.275 351.67 308.496 371 308.496Z" fill="white"></path>
<path d="M308 128.956V167.576H267.2V228.996H228.8V167.576H188V128.956H228.8V88.9957H267.2V128.956H308Z" fill="white"></path>
<path d="M250 319.496L195 394.496H305L250 319.496Z" fill="white"></path>
</svg>
</svg>